<svg width="12" height="12" viewBox="0 0 12 12" fill="none" xmlns="http://www.w3.org/2000/svg">
<path d="M9.5 10H2.5C1.4 10 0.5 9.1 0.5 8V4C0.5 2.9 1.4 2 2.5 2H9.5C10.6 2 11.5 2.9 11.5 4V8C11.5 9.1 10.6 10 9.5 10Z" fill="#747DA4"/>
<path d="M6.00001 6.29992C5.70001 6.29992 5.35001 6.19992 5.10001 6.04992L2.60001 4.59992C2.35001 4.49992 2.25001 4.14992 2.40001 3.94992C2.50001 3.69992 2.85001 3.59992 3.05001 3.74992L5.55001 5.19992C5.80001 5.34992 6.15001 5.34992 6.40001 5.19992L8.9 3.74992C9.15 3.59992 9.45001 3.69992 9.60001 3.94992C9.75001 4.19992 9.65 4.49992 9.4 4.64992L6.90001 6.09992C6.65001 6.19992 6.30001 6.29992 6.00001 6.29992Z" fill="#4B516A"/>
</svg>
